<svg width="20" height="20" viewBox="0 0 20 20" fill="none" xmlns="http://www.w3.org/2000/svg">
<path d="M18.3337 10C18.3337 5.39765 14.6027 1.66669 10.0003 1.66669C5.39795 1.66669 1.66699 5.39765 1.66699 10C1.66699 14.6024 5.39795 18.3334 10.0003 18.3334C14.6027 18.3334 18.3337 14.6024 18.3337 10Z" stroke="white"/>
<path d="M16.6663 4.74918C15.8874 4.80532 14.8898 5.10689 14.1979 6.00233C12.9484 7.6197 11.6988 7.75465 10.8658 7.21553C9.61626 6.40685 10.6663 5.09699 9.19976 4.38515C8.24395 3.9212 8.11068 2.65873 8.64267 1.66669" stroke="white" stroke-linejoin="round"/>
<path d="M1.66699 9.16669C2.30241 9.71844 3.19238 10.2235 4.24094 10.2235C6.40735 10.2235 6.84063 10.6374 6.84063 12.2932C6.84063 13.9489 6.84063 13.9489 7.27392 15.1907C7.55575 15.9984 7.65426 16.8062 7.09249 17.5" stroke="white" stroke-linejoin="round"/>
<path d="M18.3337 11.2103C17.5944 10.7843 16.667 10.609 15.7282 11.2838C13.9317 12.5749 12.6932 11.505 12.1352 12.5741C11.3141 14.1479 14.2467 14.6426 11.667 18.3334" stroke="white" stroke-linejoin="round"/>
</svg>
