<svg width="20" height="20" viewBox="0 0 20 20" fill="none" xmlns="http://www.w3.org/2000/svg">
<path d="M1.66699 4.16669L7.42784 7.4372C9.53258 8.6321 10.4681 8.6321 12.5728 7.4372L18.3337 4.16669" stroke="white" stroke-linejoin="round"/>
<path d="M8.75033 16.25C8.36174 16.2449 7.97268 16.2375 7.58268 16.2276C4.95893 16.1617 3.64706 16.1287 2.70446 15.182C1.76185 14.2352 1.73461 12.9572 1.68013 10.4011C1.66262 9.57923 1.66261 8.76223 1.68013 7.94034C1.73461 5.38425 1.76184 4.10621 2.70445 3.15947C3.64706 2.21273 4.95893 2.17975 7.58268 2.1138C9.19974 2.07315 10.8009 2.07315 12.418 2.1138C15.0417 2.17976 16.3536 2.21275 17.2962 3.15949C18.2388 4.10622 18.2661 5.38426 18.3205 7.94035C18.3286 8.31874 18.3329 8.49706 18.3336 8.74998" stroke="white" stroke-linecap="round" stroke-linejoin="round"/>
<path d="M15.833 14.1667C15.833 14.857 15.2733 15.4167 14.583 15.4167C13.8927 15.4167 13.333 14.857 13.333 14.1667C13.333 13.4764 13.8927 12.9167 14.583 12.9167C15.2733 12.9167 15.833 13.4764 15.833 14.1667ZM15.833 14.1667V14.5834C15.833 15.2737 16.3927 15.8334 17.083 15.8334C17.7733 15.8334 18.333 15.2737 18.333 14.5834V14.1667C18.333 12.0956 16.6541 10.4167 14.583 10.4167C12.5119 10.4167 10.833 12.0956 10.833 14.1667C10.833 16.2378 12.5119 17.9167 14.583 17.9167" stroke="white" stroke-linecap="round" stroke-linejoin="round"/>
</svg>

